<svg xmlns="http://www.w3.org/2000/svg" width="287" height="71" viewBox="0 0 287 71"><g fill="none" fill-rule="evenodd"><path fill="#7A131A" d="M2 24.586v-.142c0-.243.033-.419.1-.527 2.636-.378 4.847-1.04 6.63-1.985.107 0 .217.094.33.283.114.19.17.345.17.466-.186 1.324-.28 2.141-.28 2.452 0 .121.034.182.1.182.027 0 .074-.027.14-.081l.16-.162c.453-.378.839-.692 1.158-.942.32-.25.766-.564 1.339-.942a7.432 7.432 0 0 1 1.737-.861 5.4 5.4 0 0 1 1.718-.294c1.411 0 2.553.307 3.425.922.872.614 1.495 1.604 1.868 2.968 2.81-2.593 5.08-3.89 6.81-3.89.986 0 1.831.132 2.537.395.706.264 1.282.638 1.728 1.124.446.487.795 1.155 1.048 2.006.253.85.426 1.776.52 2.775.093 1 .14 2.222.14 3.667v5.166c0 1.81.073 2.97.22 3.484.066.216.459.395 1.178.537.719.142 1.304.213 1.757.213.107.135.16.378.16.729 0 .297-.053.506-.16.628l-1.638-.101c-.665-.04-1.251-.075-1.757-.102a29.624 29.624 0 0 0-2.846-.01c-.433.02-.81.04-1.129.061-.32.02-.722.047-1.208.081s-.922.057-1.308.07c-.107-.12-.157-.347-.15-.678.006-.33.056-.557.15-.678.452 0 1.038-.071 1.757-.213.72-.142 1.112-.32 1.179-.537.146-.513.22-1.675.22-3.484v-5.024c0-1.013-.03-1.87-.09-2.573-.06-.702-.18-1.377-.36-2.026-.18-.648-.43-1.165-.75-1.55a3.283 3.283 0 0 0-1.257-.911c-.52-.223-1.152-.334-1.898-.334-.52 0-1.068.125-1.648.374-.579.25-1.071.534-1.478.851a8.94 8.94 0 0 0-1.008.902c-.266.283-.4.472-.4.567l.02.284c.014.175.02.283.02.324.12.797.18 1.91.18 3.342v5.774c0 1.81.08 2.97.24 3.484.04.149.27.284.689.405.42.122.835.21 1.248.264.413.054.74.08.979.08.093.122.146.348.16.68.013.33-.04.556-.16.678a40.955 40.955 0 0 1-1.298-.071c-.493-.034-.903-.06-1.229-.081-.326-.02-.709-.04-1.148-.06a27.774 27.774 0 0 0-2.836.01c-.506.026-1.086.06-1.738.1l-1.618.102c-.106-.122-.156-.348-.15-.679.007-.33.057-.557.15-.678.44 0 1.022-.071 1.748-.213.725-.142 1.115-.32 1.168-.537.16-.513.24-1.675.24-3.484v-4.801c0-1.459-.07-2.66-.21-3.606-.14-.946-.383-1.726-.729-2.34-.346-.615-.792-1.047-1.338-1.297s-1.238-.374-2.077-.374c-.493 0-1.009.108-1.548.324a6.527 6.527 0 0 0-1.398.75 6.412 6.412 0 0 0-.979.85c-.26.284-.39.507-.39.669v9.825c0 1.81.08 2.97.24 3.484.014.081.084.159.21.233.127.074.283.135.47.182.186.048.389.095.609.142.22.047.436.085.649.112.213.027.402.047.569.06.166.014.303.02.41.02.093.122.142.348.15.68.006.33-.044.556-.15.678l-1.638-.101c-.666-.04-1.252-.075-1.758-.102a29.428 29.428 0 0 0-3.126 0c-.5.027-1.075.061-1.727.102l-1.618.1c-.12-.12-.177-.347-.17-.678.007-.33.063-.557.17-.678.44 0 1.018-.071 1.737-.213.72-.142 1.112-.32 1.179-.537.146-.513.22-1.675.22-3.484v-8.55c0-1.377-.074-2.254-.22-2.633-.107-.243-.406-.435-.899-.577-.493-.142-.905-.223-1.238-.243-.333-.02-.626-.03-.88-.03-.052-.04-.086-.223-.099-.547zM38.106 37.59c0-.891.243-1.688.73-2.39.485-.703 1.015-1.162 1.587-1.378l2.137-.76c.932-.33 1.738-.614 2.417-.85.68-.237 1.362-.486 2.047-.75a54.306 54.306 0 0 0 1.508-.597c.12-.054.213-.102.28-.142a.481.481 0 0 0 .17-.193.883.883 0 0 0 .09-.324c.013-.128.02-.3.02-.516v-1.277c0-.702-.174-1.397-.52-2.086a4.797 4.797 0 0 0-1.448-1.722c-.619-.46-1.295-.689-2.027-.689-.772 0-1.345.24-1.718.72-.373.479-.646 1.205-.819 2.177-.146.783-.4 1.357-.759 1.722-.36.365-.832.547-1.418.547-.466 0-.845-.203-1.138-.608a2.293 2.293 0 0 1-.44-1.377c0-.068.014-.173.04-.314a3.59 3.59 0 0 1 .12-.456 1.18 1.18 0 0 1 .16-.345c.4-.378.889-.773 1.468-1.185.58-.412 1.245-.827 1.997-1.246a12.668 12.668 0 0 1 2.447-1.033c.879-.27 1.718-.405 2.517-.405 1.344 0 2.523.628 3.535 1.884 1.012 1.256 1.518 2.775 1.518 4.558v9.683c0 1.472.48 2.209 1.438 2.209a2.429 2.429 0 0 0 .739-.132c.093-.034.19-.078.29-.132.1-.054.176-.101.23-.142.052-.04.109-.08.169-.121.06-.04.09-.068.09-.081.133 0 .2.128.2.385 0 .324-.08.62-.24.891-.36.324-.919.702-1.678 1.134-.759.433-1.358.649-1.798.649-.639 0-1.231-.318-1.777-.952-.546-.635-.892-1.337-1.039-2.107-.452.459-1.341 1.1-2.666 1.924-1.325.824-2.34 1.236-3.046 1.236-1.531 0-2.816-.52-3.855-1.56-1.038-1.04-1.558-2.323-1.558-3.849zm3.835-.425c0 .567.137 1.104.41 1.61.273.507.649.912 1.128 1.216.48.304 1.005.456 1.578.456.386 0 .822-.078 1.308-.233a7.937 7.937 0 0 0 1.318-.547c.393-.21.726-.422 1-.639.272-.216.408-.384.408-.506v-6.381c-2.396.716-3.834 1.168-4.314 1.357-.878.338-1.57.817-2.077 1.438-.506.622-.759 1.364-.759 2.229zM56.277 23.45c0-.27.04-.459.12-.567 2.543-.108 4.66-.425 6.351-.952.107 0 .22.121.34.365.12.243.18.438.18.587-.067.122-.124.351-.17.689-.047.337-.083.732-.11 1.185-.027.452-.04.908-.04 1.367v6.908c0 2.499.366 4.335 1.099 5.51.732 1.175 1.91 1.763 3.535 1.763.652 0 1.315-.135 1.987-.405.672-.27 1.218-.608 1.638-1.013.42-.405.629-.79.629-1.155v-10.15c0-1.228-.127-2.079-.38-2.552-.2-.364-.555-.61-1.068-.74a6.197 6.197 0 0 0-1.508-.192c-.08-.08-.123-.273-.13-.577-.006-.304.037-.516.13-.638 2.53-.108 4.64-.425 6.331-.952.08 0 .16.078.24.233.08.155.147.324.2.506.053.183.08.314.08.395-.213.432-.32 1.452-.32 3.06v9.865c0 1.35.107 2.539.32 3.565.053.203.223.368.509.496.286.129.583.21.889.244a29.824 29.824 0 0 0 1.338.111c.093.04.14.21.14.506a1.444 1.444 0 0 1-.18.587c-.067.122-.133.183-.2.183-.452.027-.965.088-1.538.183-.572.094-1.111.206-1.617.334a57.412 57.412 0 0 0-2.457.678l-.4.122c-.12 0-.213-.081-.28-.243a1.373 1.373 0 0 1-.099-.527v-2.147l-.1-.243c-.706.77-1.7 1.479-2.986 2.127-1.285.648-2.48.972-3.585.972a5.513 5.513 0 0 1-1.488-.192 4.57 4.57 0 0 1-1.218-.527 4.88 4.88 0 0 1-.979-.82 5.261 5.261 0 0 1-.759-1.054 8.715 8.715 0 0 1-.55-1.236c-.159-.445-.289-.89-.389-1.337-.1-.445-.18-.918-.24-1.418a22.246 22.246 0 0 1-.17-2.755v-6.016c0-1.23-.126-2.08-.379-2.553-.2-.364-.556-.61-1.068-.74a6.274 6.274 0 0 0-1.528-.192c-.08-.094-.12-.31-.12-.648zm24.183 14.14c0-.891.243-1.688.729-2.39.486-.703 1.015-1.162 1.587-1.378l2.138-.76c.932-.33 1.737-.614 2.416-.85.68-.237 1.362-.486 2.048-.75a54.306 54.306 0 0 0 1.507-.597c.12-.054.214-.102.28-.142a.481.481 0 0 0 .17-.193.883.883 0 0 0 .09-.324c.013-.128.02-.3.02-.516v-1.277c0-.702-.173-1.397-.52-2.086a4.797 4.797 0 0 0-1.448-1.722c-.619-.46-1.295-.689-2.027-.689-.772 0-1.345.24-1.718.72-.372.479-.645 1.205-.818 2.177-.147.783-.4 1.357-.76 1.722-.359.365-.832.547-1.417.547-.466 0-.846-.203-1.139-.608a2.293 2.293 0 0 1-.44-1.377c0-.068.014-.173.04-.314a3.59 3.59 0 0 1 .12-.456 1.18 1.18 0 0 1 .16-.345c.4-.378.889-.773 1.468-1.185.58-.412 1.245-.827 1.998-1.246a12.668 12.668 0 0 1 2.446-1.033c.879-.27 1.718-.405 2.517-.405 1.345 0 2.523.628 3.535 1.884 1.012 1.256 1.518 2.775 1.518 4.558v9.683c0 1.472.48 2.209 1.438 2.209a2.429 2.429 0 0 0 .739-.132c.093-.034.19-.078.29-.132.1-.054.176-.101.23-.142.053-.04.11-.08.17-.121.059-.04.089-.068.089-.081.133 0 .2.128.2.385 0 .324-.08.62-.24.891-.36.324-.919.702-1.678 1.134-.759.433-1.358.649-1.797.649-.64 0-1.232-.318-1.778-.952-.546-.635-.892-1.337-1.038-2.107-.453.459-1.342 1.1-2.667 1.924-1.325.824-2.34 1.236-3.046 1.236-1.531 0-2.816-.52-3.854-1.56-1.04-1.04-1.558-2.323-1.558-3.849zm3.834-.425c0 .567.137 1.104.41 1.61.273.507.649.912 1.128 1.216.48.304 1.006.456 1.578.456.386 0 .822-.078 1.308-.233a7.937 7.937 0 0 0 1.319-.547c.392-.21.725-.422.998-.639.273-.216.41-.384.41-.506v-6.381c-2.397.716-3.835 1.168-4.314 1.357-.88.338-1.572.817-2.078 1.438-.506.622-.759 1.364-.759 2.229zm15.475-4.234c0-1.175.25-2.337.749-3.484a10.83 10.83 0 0 1 1.947-3.029 15.91 15.91 0 0 1 2.657-2.32c.972-.675 1.954-1.188 2.946-1.54.992-.35 1.907-.526 2.746-.526.466 0 1.055.054 1.767.162.713.108 1.189.21 1.428.304.147 0 .22-.33.22-.993v-5.125c0-1.242-.073-2.053-.22-2.43-.24-.568-1.185-.852-2.836-.852-.013 0-.03-.097-.05-.293a3.572 3.572 0 0 1-.01-.598c.014-.202.054-.31.12-.324 2.117-.216 4.308-.844 6.571-1.884.12 0 .233.084.34.253.106.169.16.334.16.497-.333 1.012-.5 2.376-.5 4.092v20.116c0 2.552.107 4.085.32 4.598.053.122.14.226.26.314s.26.159.419.213a5.073 5.073 0 0 0 1.039.233 19.737 19.737 0 0 0 1.018.091c.093.04.14.23.14.567 0 .081-.037.22-.11.416-.073.195-.163.293-.27.293-.439.027-.948.088-1.527.183-.58.094-1.122.206-1.628.334a57.412 57.412 0 0 0-2.457.678l-.4.122c-.12 0-.212-.098-.279-.294a1.906 1.906 0 0 1-.1-.618v-1.64c0-.203-.026-.304-.08-.304a.152.152 0 0 0-.06.02c-.452.5-1.344 1.097-2.676 1.793-1.332.695-2.49 1.043-3.475 1.043-1.052 0-2.07-.26-3.056-.78a8.857 8.857 0 0 1-2.607-2.097c-.752-.877-1.358-1.948-1.817-3.21-.46-1.263-.69-2.59-.69-3.981zm3.894-1.135c0 1.121.147 2.178.44 3.17.293.993.709 1.871 1.248 2.634a5.86 5.86 0 0 0 2.067 1.813c.84.446 1.765.669 2.777.669.506 0 1.012-.064 1.518-.193a5.926 5.926 0 0 0 1.298-.476c.36-.189.652-.391.879-.607.226-.216.34-.419.34-.608V26.308c0-.554-.503-1.077-1.509-1.57-1.005-.493-2.14-.74-3.405-.74-1.119 0-2.117.378-2.996 1.135-.879.756-1.541 1.722-1.987 2.896a10.527 10.527 0 0 0-.67 3.768zM166 24.586v-.142c0-.243.033-.419.1-.527 2.636-.378 4.847-1.04 6.63-1.985.107 0 .217.094.33.283.114.19.17.345.17.466-.186 1.324-.28 2.141-.28 2.452 0 .121.034.182.1.182.027 0 .074-.027.14-.081l.16-.162a47.42 47.42 0 0 1 1.158-.942c.32-.25.766-.564 1.339-.942a7.432 7.432 0 0 1 1.737-.861 5.4 5.4 0 0 1 1.718-.294c1.411 0 2.553.307 3.425.922.872.614 1.495 1.604 1.868 2.968 2.81-2.593 5.08-3.89 6.81-3.89.986 0 1.831.132 2.537.395.706.264 1.282.638 1.728 1.124.446.487.795 1.155 1.048 2.006.253.85.426 1.776.52 2.775.093 1 .14 2.222.14 3.667v5.166c0 1.81.073 2.97.22 3.484.066.216.459.395 1.178.537.719.142 1.304.213 1.757.213.107.135.16.378.16.729 0 .297-.053.506-.16.628l-1.638-.101c-.665-.04-1.251-.075-1.757-.102a29.624 29.624 0 0 0-2.846-.01c-.433.02-.81.04-1.129.061-.32.02-.722.047-1.208.081s-.922.057-1.308.07c-.107-.12-.157-.347-.15-.678.006-.33.056-.557.15-.678.452 0 1.038-.071 1.757-.213.72-.142 1.112-.32 1.179-.537.146-.513.22-1.675.22-3.484v-5.024c0-1.013-.03-1.87-.09-2.573-.06-.702-.18-1.377-.36-2.026-.18-.648-.43-1.165-.75-1.55a3.283 3.283 0 0 0-1.257-.911c-.52-.223-1.152-.334-1.898-.334-.52 0-1.068.125-1.648.374-.579.25-1.071.534-1.478.851a8.94 8.94 0 0 0-1.008.902c-.266.283-.4.472-.4.567l.02.284c.014.175.02.283.02.324.12.797.18 1.91.18 3.342v5.774c0 1.81.08 2.97.24 3.484.04.149.27.284.689.405.42.122.835.21 1.248.264.413.054.74.08.979.08.093.122.146.348.16.68.013.33-.04.556-.16.678a40.955 40.955 0 0 1-1.298-.071c-.493-.034-.903-.06-1.229-.081-.326-.02-.709-.04-1.148-.06a27.774 27.774 0 0 0-2.836.01c-.506.026-1.086.06-1.738.1l-1.618.102c-.106-.122-.156-.348-.15-.679.007-.33.057-.557.15-.678.44 0 1.022-.071 1.748-.213.725-.142 1.115-.32 1.168-.537.16-.513.24-1.675.24-3.484v-4.801c0-1.459-.07-2.66-.21-3.606-.14-.946-.383-1.726-.729-2.34-.346-.615-.792-1.047-1.338-1.297s-1.238-.374-2.077-.374c-.493 0-1.009.108-1.548.324a6.527 6.527 0 0 0-1.398.75 6.412 6.412 0 0 0-.979.85c-.26.284-.39.507-.39.669v9.825c0 1.81.08 2.97.24 3.484.014.081.084.159.21.233.127.074.283.135.47.182.186.048.389.095.609.142.22.047.436.085.649.112.213.027.402.047.569.06.166.014.303.02.41.02.093.122.142.348.15.68.006.33-.044.556-.15.678l-1.638-.101a239.71 239.71 0 0 0-1.758-.102 29.428 29.428 0 0 0-3.126 0c-.5.027-1.075.061-1.727.102l-1.618.1c-.12-.12-.177-.347-.17-.678.007-.33.063-.557.17-.678.44 0 1.018-.071 1.737-.213.72-.142 1.112-.32 1.179-.537.146-.513.22-1.675.22-3.484v-8.55c0-1.377-.074-2.254-.22-2.633-.107-.243-.406-.435-.899-.577-.493-.142-.905-.223-1.238-.243-.333-.02-.626-.03-.88-.03-.052-.04-.086-.223-.099-.547zm36.106 13.005c0-.891.243-1.688.73-2.39.485-.703 1.015-1.162 1.587-1.378l2.137-.76c.932-.33 1.738-.614 2.417-.85a68.66 68.66 0 0 0 2.047-.75 54.305 54.305 0 0 0 1.508-.597c.12-.054.213-.102.28-.142a.481.481 0 0 0 .17-.193.883.883 0 0 0 .09-.324c.013-.128.02-.3.02-.516v-1.277c0-.702-.174-1.397-.52-2.086a4.797 4.797 0 0 0-1.448-1.722c-.619-.46-1.295-.689-2.027-.689-.772 0-1.345.24-1.718.72-.373.479-.646 1.205-.819 2.177-.146.783-.4 1.357-.759 1.722-.36.365-.832.547-1.418.547-.466 0-.845-.203-1.138-.608a2.293 2.293 0 0 1-.44-1.377c0-.068.014-.173.04-.314a3.59 3.59 0 0 1 .12-.456 1.18 1.18 0 0 1 .16-.345c.4-.378.889-.773 1.468-1.185.58-.412 1.245-.827 1.997-1.246a12.668 12.668 0 0 1 2.447-1.033c.879-.27 1.718-.405 2.517-.405 1.344 0 2.523.628 3.535 1.884 1.012 1.256 1.518 2.775 1.518 4.558v9.683c0 1.472.48 2.209 1.438 2.209a2.429 2.429 0 0 0 .739-.132c.093-.034.19-.078.29-.132.1-.054.176-.101.23-.142.052-.04.109-.08.169-.121.06-.04.09-.068.09-.081.133 0 .2.128.2.385 0 .324-.08.62-.24.891-.36.324-.919.702-1.678 1.134-.759.433-1.358.649-1.798.649-.639 0-1.231-.318-1.777-.952-.546-.635-.892-1.337-1.039-2.107-.452.459-1.341 1.1-2.666 1.924-1.325.824-2.34 1.236-3.046 1.236-1.531 0-2.816-.52-3.855-1.56-1.038-1.04-1.558-2.323-1.558-3.849zm3.835-.425c0 .567.137 1.104.41 1.61.273.507.649.912 1.128 1.216.48.304 1.005.456 1.578.456.386 0 .822-.078 1.308-.233a7.937 7.937 0 0 0 1.318-.547c.393-.21.726-.422 1-.639.272-.216.408-.384.408-.506v-6.381c-2.396.716-3.834 1.168-4.314 1.357-.878.338-1.57.817-2.077 1.438-.506.622-.759 1.364-.759 2.229zm14.336-13.715c0-.27.04-.459.12-.567 2.543-.108 4.66-.425 6.351-.952.107 0 .22.121.34.365.12.243.18.438.18.587-.067.122-.124.351-.17.689-.047.337-.083.732-.11 1.185-.027.452-.04.908-.04 1.367v6.908c0 2.499.366 4.335 1.099 5.51.732 1.175 1.91 1.763 3.535 1.763.652 0 1.315-.135 1.987-.405.672-.27 1.218-.608 1.638-1.013.42-.405.629-.79.629-1.155v-10.15c0-1.228-.127-2.079-.38-2.552-.2-.364-.555-.61-1.068-.74a6.197 6.197 0 0 0-1.508-.192c-.08-.08-.123-.273-.13-.577-.006-.304.037-.516.13-.638 2.53-.108 4.64-.425 6.331-.952.08 0 .16.078.24.233.08.155.147.324.2.506.053.183.08.314.08.395-.213.432-.32 1.452-.32 3.06v9.865c0 1.35.107 2.539.32 3.565.053.203.223.368.509.496.286.129.583.21.889.244a29.824 29.824 0 0 0 1.338.111c.093.04.14.21.14.506a1.444 1.444 0 0 1-.18.587c-.067.122-.133.183-.2.183-.452.027-.965.088-1.538.183-.572.094-1.111.206-1.617.334a57.413 57.413 0 0 0-2.457.678l-.4.122c-.12 0-.213-.081-.28-.243a1.373 1.373 0 0 1-.099-.527v-2.147l-.1-.243c-.706.77-1.7 1.479-2.986 2.127-1.285.648-2.48.972-3.585.972a5.513 5.513 0 0 1-1.488-.192 4.57 4.57 0 0 1-1.218-.527 4.88 4.88 0 0 1-.979-.82 5.261 5.261 0 0 1-.759-1.054 8.715 8.715 0 0 1-.55-1.236c-.159-.445-.289-.89-.389-1.337-.1-.445-.18-.918-.24-1.418a22.246 22.246 0 0 1-.17-2.755v-6.016c0-1.23-.126-2.08-.379-2.553-.2-.364-.556-.61-1.068-.74a6.274 6.274 0 0 0-1.528-.192c-.08-.094-.12-.31-.12-.648zm24.183 14.14c0-.891.243-1.688.729-2.39.486-.703 1.015-1.162 1.587-1.378l2.138-.76c.932-.33 1.737-.614 2.416-.85.68-.237 1.362-.486 2.048-.75a54.305 54.305 0 0 0 1.507-.597c.12-.054.214-.102.28-.142a.481.481 0 0 0 .17-.193.883.883 0 0 0 .09-.324c.013-.128.02-.3.02-.516v-1.277c0-.702-.173-1.397-.52-2.086a4.797 4.797 0 0 0-1.448-1.722c-.619-.46-1.295-.689-2.027-.689-.772 0-1.345.24-1.718.72-.372.479-.645 1.205-.818 2.177-.147.783-.4 1.357-.76 1.722-.359.365-.832.547-1.417.547-.466 0-.846-.203-1.139-.608a2.293 2.293 0 0 1-.44-1.377c0-.068.014-.173.04-.314a3.59 3.59 0 0 1 .12-.456 1.18 1.18 0 0 1 .16-.345c.4-.378.889-.773 1.468-1.185.58-.412 1.245-.827 1.998-1.246a12.668 12.668 0 0 1 2.446-1.033c.879-.27 1.718-.405 2.517-.405 1.345 0 2.523.628 3.535 1.884 1.012 1.256 1.518 2.775 1.518 4.558v9.683c0 1.472.48 2.209 1.438 2.209a2.429 2.429 0 0 0 .739-.132c.093-.034.19-.078.29-.132.1-.054.176-.101.23-.142.053-.04.11-.08.17-.121.059-.04.089-.068.089-.081.133 0 .2.128.2.385 0 .324-.08.62-.24.891-.36.324-.919.702-1.678 1.134-.759.433-1.358.649-1.797.649-.64 0-1.232-.318-1.778-.952-.546-.635-.892-1.337-1.038-2.107-.453.459-1.342 1.1-2.667 1.924-1.325.824-2.34 1.236-3.046 1.236-1.531 0-2.816-.52-3.854-1.56-1.04-1.04-1.558-2.323-1.558-3.849zm3.834-.425c0 .567.137 1.104.41 1.61.273.507.649.912 1.128 1.216.48.304 1.006.456 1.578.456.386 0 .822-.078 1.308-.233a7.937 7.937 0 0 0 1.319-.547c.392-.21.725-.422.998-.639.273-.216.41-.384.41-.506v-6.381c-2.397.716-3.835 1.168-4.314 1.357-.88.338-1.572.817-2.078 1.438-.506.622-.759 1.364-.759 2.229zm15.475-4.234c0-1.175.25-2.337.749-3.484a10.83 10.83 0 0 1 1.947-3.029 15.91 15.91 0 0 1 2.657-2.32c.972-.675 1.954-1.188 2.946-1.54.992-.35 1.907-.526 2.746-.526.466 0 1.055.054 1.767.162.713.108 1.189.21 1.428.304.147 0 .22-.33.22-.993v-5.125c0-1.242-.073-2.053-.22-2.43-.24-.568-1.185-.852-2.836-.852-.013 0-.03-.097-.05-.293a3.572 3.572 0 0 1-.01-.598c.014-.202.054-.31.12-.324 2.117-.216 4.308-.844 6.571-1.884.12 0 .233.084.34.253.106.169.16.334.16.497-.333 1.012-.5 2.376-.5 4.092v20.116c0 2.552.107 4.085.32 4.598.053.122.14.226.26.314s.26.159.419.213a5.073 5.073 0 0 0 1.039.233 19.737 19.737 0 0 0 1.018.091c.093.04.14.23.14.567 0 .081-.037.22-.11.416-.073.195-.163.293-.27.293-.439.027-.948.088-1.527.183-.58.094-1.122.206-1.628.334a57.412 57.412 0 0 0-2.457.678l-.4.122c-.12 0-.212-.098-.279-.294a1.906 1.906 0 0 1-.1-.618v-1.64c0-.203-.026-.304-.08-.304a.152.152 0 0 0-.06.02c-.452.5-1.344 1.097-2.676 1.793-1.332.695-2.49 1.043-3.475 1.043-1.052 0-2.07-.26-3.056-.78a8.857 8.857 0 0 1-2.607-2.097c-.752-.877-1.358-1.948-1.817-3.21-.46-1.263-.69-2.59-.69-3.981zm3.894-1.135c0 1.121.147 2.178.44 3.17.293.993.709 1.871 1.248 2.634a5.86 5.86 0 0 0 2.067 1.813c.84.446 1.765.669 2.777.669.506 0 1.012-.064 1.518-.193a5.926 5.926 0 0 0 1.298-.476c.36-.189.652-.391.879-.607.226-.216.34-.419.34-.608V26.308c0-.554-.503-1.077-1.509-1.57-1.005-.493-2.14-.74-3.405-.74-1.119 0-2.117.378-2.996 1.135-.879.756-1.541 1.722-1.987 2.896a10.527 10.527 0 0 0-.67 3.768z"/><path fill="#704910" d="M11.248 64.696l-.257 1.224h-.13c-.367 0-.674-.02-.92-.06a1.892 1.892 0 0 1-.626-.203 1.35 1.35 0 0 1-.432-.383 3.762 3.762 0 0 1-.341-.578c-.761.816-1.682 1.224-2.762 1.224-.847 0-1.522-.224-2.025-.672C3.252 64.802 3 64.22 3 63.507c0-.578.169-1.054.506-1.428a3.682 3.682 0 0 1 1.29-.901 6.955 6.955 0 0 1 1.74-.484c.637-.097 1.257-.15 1.859-.162 0-.748-.157-1.255-.47-1.521-.313-.267-.813-.4-1.5-.4-.786 0-1.578.25-2.376.748l-.239-1.241c.81-.578 1.829-.867 3.056-.867.577 0 1.068.07 1.473.213.405.141.734.368.985.68.252.311.436.722.553 1.232.116.51.175 1.133.175 1.87v1.7c0 .657.061 1.113.184 1.369.123.255.405.382.847.382h.165zm-2.853-1.122v-1.989c-1.326.045-2.274.207-2.845.484-.57.278-.856.729-.856 1.352 0 .85.466 1.275 1.4 1.275.441 0 .868-.102 1.279-.306a2.969 2.969 0 0 0 1.022-.816zm11.09 2.346c-.221 0-.46-.028-.718-.085a5.044 5.044 0 0 1-.774-.238c-.257-.102-.5-.23-.727-.382a2.352 2.352 0 0 1-.562-.519l-.184 1.054h-1.473V53h1.657v5.321c.639-.714 1.572-1.071 2.8-1.071a3.905 3.905 0 0 1 2.945 1.292c.356.397.632.858.828 1.386.197.527.295 1.079.295 1.657 0 .6-.104 1.164-.313 1.692a4.288 4.288 0 0 1-.865 1.377c-.369.39-.801.7-1.298.926a3.837 3.837 0 0 1-1.611.34zm-.184-7.31c-.356 0-.697.065-1.022.196-.326.13-.611.322-.856.578a2.862 2.862 0 0 0-.59.934 3.39 3.39 0 0 0-.22 1.267c0 .487.07.918.211 1.292s.335.686.58.935c.246.25.531.436.856.561.326.125.672.187 1.04.187a2.365 2.365 0 0 0 1.879-.884c.22-.272.392-.59.515-.952.123-.363.184-.742.184-1.139 0-.42-.061-.81-.184-1.173a2.84 2.84 0 0 0-.525-.944 2.464 2.464 0 0 0-.819-.629 2.396 2.396 0 0 0-1.05-.229zm15.73 6.086c-.799.816-1.885 1.224-3.26 1.224-.7 0-1.325-.11-1.878-.331a4.151 4.151 0 0 1-1.408-.91 3.849 3.849 0 0 1-.884-1.377 4.79 4.79 0 0 1-.304-1.717c0-.623.105-1.198.313-1.726.21-.527.507-.983.893-1.368a4.151 4.151 0 0 1 1.409-.91c.552-.22 1.172-.331 1.86-.331.687 0 1.307.11 1.859.331a4.087 4.087 0 0 1 1.409.918c.386.392.684.85.893 1.377.208.528.313 1.097.313 1.709 0 1.247-.406 2.284-1.216 3.111zm-1.216-5.304c-.479-.521-1.16-.782-2.044-.782-.883 0-1.568.258-2.052.773-.485.516-.728 1.25-.728 2.202s.243 1.686.728 2.201c.484.516 1.169.774 2.052.774.896 0 1.584-.266 2.063-.799.478-.533.718-1.258.718-2.176 0-.94-.246-1.672-.737-2.193zM44.077 70c-.712 0-1.332-.068-1.86-.204-.528-.136-.967-.32-1.316-.553-.35-.232-.611-.501-.783-.807a1.92 1.92 0 0 1-.258-.952c0-.884.534-1.507 1.602-1.87-.614-.272-.92-.623-.92-1.054 0-.193.082-.405.248-.638.166-.232.439-.433.82-.603-1.044-.691-1.566-1.598-1.566-2.72 0-.476.083-.918.249-1.326a3.04 3.04 0 0 1 .718-1.063c.313-.3.7-.535 1.16-.705.46-.17.979-.255 1.556-.255.81 0 1.577.204 2.301.612.639-.317 1.369-.476 2.191-.476h.148l-.203 1.02h-.423c-.38 0-.737.04-1.068.119.552.612.828 1.275.828 1.989 0 .442-.086.861-.258 1.258a3.291 3.291 0 0 1-.727 1.054c-.313.306-.693.55-1.141.731a4.019 4.019 0 0 1-1.52.272c-.478 0-.908-.051-1.288-.153-.295.159-.442.329-.442.51 0 .102.034.19.101.264.068.073.203.138.405.195.203.057.485.116.847.179l1.446.246c.405.068.822.153 1.252.255.43.102.819.238 1.169.408.35.17.641.388.874.655.234.266.362.597.387.994 0 .351-.104.686-.313 1.003-.209.317-.506.595-.893.833s-.862.428-1.427.57a7.802 7.802 0 0 1-1.896.212zm-.332-11.526c-.675 0-1.197.19-1.565.57-.368.38-.552.88-.552 1.504 0 .646.2 1.159.598 1.538.4.38.918.57 1.556.57.663 0 1.185-.204 1.565-.612.38-.408.57-.924.57-1.547 0-.646-.196-1.145-.588-1.496-.393-.351-.92-.527-1.584-.527zm.774 7.718c-.21 0-.755-.068-1.64-.204a2.179 2.179 0 0 0-1.03.595c-.27.283-.405.572-.405.867 0 .397.24.722.718.977.479.256 1.141.383 1.988.383.884 0 1.568-.133 2.053-.4.485-.266.727-.575.727-.926 0-.59-.803-1.02-2.411-1.292zm15.269-1.496l-.258 1.224h-.129c-.368 0-.675-.02-.92-.06a1.892 1.892 0 0 1-.626-.203 1.35 1.35 0 0 1-.433-.383 3.762 3.762 0 0 1-.34-.578c-.762.816-1.682 1.224-2.762 1.224-.847 0-1.522-.224-2.026-.672-.503-.447-.754-1.028-.754-1.742 0-.578.168-1.054.506-1.428a3.682 3.682 0 0 1 1.289-.901 6.955 6.955 0 0 1 1.74-.484c.638-.097 1.258-.15 1.86-.162 0-.748-.157-1.255-.47-1.521-.313-.267-.813-.4-1.5-.4-.786 0-1.578.25-2.376.748l-.24-1.241c.81-.578 1.83-.867 3.057-.867.577 0 1.068.07 1.473.213.405.141.733.368.985.68.252.311.436.722.552 1.232.117.51.175 1.133.175 1.87v1.7c0 .657.062 1.113.184 1.369.123.255.405.382.847.382h.166zm-2.854-1.122v-1.989c-1.325.045-2.274.207-2.844.484-.571.278-.857.729-.857 1.352 0 .85.467 1.275 1.4 1.275.442 0 .868-.102 1.28-.306a2.969 2.969 0 0 0 1.021-.816zm14.662 2.176h-1.473l-.184-1.054a2.214 2.214 0 0 1-.562.51 4.748 4.748 0 0 1-.718.383 4.27 4.27 0 0 1-.764.246 3.358 3.358 0 0 1-.718.085 3.9 3.9 0 0 1-1.62-.34 4.073 4.073 0 0 1-1.307-.926 4.288 4.288 0 0 1-.866-1.377 4.552 4.552 0 0 1-.313-1.692c0-.578.099-1.13.295-1.657.196-.528.476-.99.838-1.386a3.95 3.95 0 0 1 2.974-1.292c1.214 0 2.135.351 2.761 1.054V53h1.657v12.75zm-4.29-7.14a2.348 2.348 0 0 0-1.86.833c-.22.26-.39.572-.506.935a3.929 3.929 0 0 0-.175 1.207c0 .408.059.793.175 1.156a2.9 2.9 0 0 0 .497.944c.215.266.48.478.792.637a2.35 2.35 0 0 0 1.077.238c.368 0 .721-.06 1.059-.178.337-.12.638-.3.902-.545.264-.243.473-.55.626-.918.153-.368.23-.796.23-1.283 0-.476-.08-.901-.24-1.275a2.943 2.943 0 0 0-.634-.952 2.76 2.76 0 0 0-1.942-.799zm16.264 6.086c-.798.816-1.884 1.224-3.259 1.224-.7 0-1.326-.11-1.878-.331a4.151 4.151 0 0 1-1.408-.91 3.849 3.849 0 0 1-.884-1.377 4.79 4.79 0 0 1-.304-1.717c0-.623.104-1.198.313-1.726.209-.527.506-.983.893-1.368a4.151 4.151 0 0 1 1.408-.91c.553-.22 1.173-.331 1.86-.331s1.307.11 1.86.331a4.087 4.087 0 0 1 1.408.918c.387.392.684.85.893 1.377.209.528.313 1.097.313 1.709 0 1.247-.405 2.284-1.215 3.111zm-1.215-5.304c-.479-.521-1.16-.782-2.044-.782-.884 0-1.568.258-2.053.773-.485.516-.727 1.25-.727 2.202s.242 1.686.727 2.201c.485.516 1.17.774 2.053.774.896 0 1.583-.266 2.062-.799.479-.533.718-1.258.718-2.176 0-.94-.245-1.672-.736-2.193zm9.249 6.528c-1.314 0-2.345-.244-3.094-.731l.203-1.479c.245.204.623.397 1.132.578.51.181 1.071.272 1.685.272 1.203 0 1.804-.346 1.804-1.037 0-.623-.601-1.082-1.804-1.377-.368-.08-.715-.173-1.04-.28a3.491 3.491 0 0 1-.875-.426c-.258-.175-.47-.399-.635-.671-.166-.272-.261-.612-.286-1.02 0-.714.277-1.309.829-1.785.552-.476 1.405-.714 2.56-.714.822 0 1.638.181 2.448.544l-.203 1.394c-.638-.487-1.374-.731-2.209-.731-1.166 0-1.749.374-1.749 1.122 0 .181.03.334.092.459a.83.83 0 0 0 .331.331c.16.097.375.19.645.281.27.09.614.193 1.03.306.259.068.538.161.839.28.3.12.58.275.837.468a2.5 2.5 0 0 1 .645.714c.172.283.258.623.258 1.02 0 .272-.05.555-.148.85a1.904 1.904 0 0 1-.534.799c-.257.238-.61.436-1.058.595-.448.159-1.016.238-1.703.238zm19.933-4.216h-5.707v-1.462h5.707v1.462zm18.977 2.992l-.258 1.224h-.129c-.368 0-.675-.02-.92-.06a1.892 1.892 0 0 1-.626-.203 1.35 1.35 0 0 1-.433-.383 3.762 3.762 0 0 1-.34-.578c-.762.816-1.682 1.224-2.763 1.224-.846 0-1.522-.224-2.025-.672-.503-.447-.755-1.028-.755-1.742 0-.578.17-1.054.507-1.428a3.682 3.682 0 0 1 1.288-.901 6.955 6.955 0 0 1 1.74-.484c.639-.097 1.258-.15 1.86-.162 0-.748-.157-1.255-.47-1.521-.313-.267-.813-.4-1.5-.4-.786 0-1.577.25-2.375.748l-.24-1.241c.81-.578 1.83-.867 3.057-.867.577 0 1.068.07 1.473.213.405.141.733.368.985.68.251.311.435.722.552 1.232.117.51.175 1.133.175 1.87v1.7c0 .657.061 1.113.184 1.369.123.255.405.382.847.382h.166zm-2.854-1.122v-1.989c-1.326.045-2.274.207-2.845.484-.57.278-.856.729-.856 1.352 0 .85.467 1.275 1.4 1.275.441 0 .868-.102 1.28-.306a2.969 2.969 0 0 0 1.02-.816zm11.219 1.122l-.129 1.224h-1.491c-.798 0-1.39-.193-1.777-.578a1.916 1.916 0 0 1-.58-1.411V58.61h-1.547l.148-1.19h1.399v-2.057l1.657-.153v2.21h2.375v1.19h-2.375v4.386c0 .397.012.708.037.935.024.227.095.397.212.51.116.113.303.184.561.212.258.029.62.043 1.086.043h.424zm8.752 0l-.13 1.224h-1.49c-.799 0-1.39-.193-1.777-.578a1.916 1.916 0 0 1-.58-1.411V58.61h-1.547l.147-1.19h1.4v-2.057l1.657-.153v2.21h2.375v1.19h-2.375v4.386c0 .397.012.708.036.935.025.227.096.397.212.51.117.113.304.184.562.212.258.029.62.043 1.086.043h.424zm11.145 0c-.798.816-1.884 1.224-3.26 1.224-.699 0-1.325-.11-1.877-.331a4.151 4.151 0 0 1-1.409-.91 3.849 3.849 0 0 1-.883-1.377 4.79 4.79 0 0 1-.304-1.717c0-.623.104-1.198.313-1.726.209-.527.506-.983.893-1.368a4.151 4.151 0 0 1 1.408-.91c.553-.22 1.173-.331 1.86-.331s1.307.11 1.86.331a4.087 4.087 0 0 1 1.408.918c.387.392.684.85.893 1.377.209.528.313 1.097.313 1.709 0 1.247-.405 2.284-1.215 3.111zm-1.215-5.304c-.48-.521-1.16-.782-2.044-.782-.884 0-1.568.258-2.053.773-.485.516-.727 1.25-.727 2.202s.242 1.686.727 2.201c.485.516 1.17.774 2.053.774.896 0 1.583-.266 2.062-.799.479-.533.718-1.258.718-2.176 0-.94-.245-1.672-.736-2.193zm11.458-2.278l-.368 1.683h-.571c-.184 0-.38.031-.59.094a3.204 3.204 0 0 0-.598.246c-.19.102-.365.215-.524.34-.16.125-.277.255-.35.391v5.882h-1.768v-8.33h1.363l.202 1.377c.565-.59 1.077-1.017 1.538-1.283.46-.267.966-.4 1.519-.4h.147zm11.826 8.636h-1.657v-4.59c0-.895-.18-1.544-.543-1.946-.362-.403-.966-.604-1.813-.604-1.203 0-2.026.363-2.468 1.088v6.052h-1.657v-8.33h1.29l.183.884c.86-.703 1.854-1.054 2.983-1.054 2.455 0 3.682 1.303 3.682 3.91v4.59zm12.38-4.165h-6.537c.196 1.983 1.326 2.975 3.388 2.975.92 0 1.786-.164 2.596-.493l.22 1.207c-1.067.43-2.074.646-3.019.646-.76 0-1.445-.113-2.053-.34a4.535 4.535 0 0 1-1.537-.926 3.932 3.932 0 0 1-.957-1.394 4.544 4.544 0 0 1-.332-1.743c0-.6.105-1.162.313-1.683.209-.521.503-.972.884-1.351.38-.38.844-.68 1.39-.901.546-.222 1.157-.332 1.832-.332.577 0 1.105.08 1.583.238.48.159.887.391 1.225.697.337.306.601.677.791 1.114.19.436.286.926.286 1.47 0 .317-.025.59-.074.816zm-3.849-2.975c-1.338 0-2.185.64-2.54 1.921h4.75c0-.612-.185-1.085-.553-1.42-.368-.334-.92-.501-1.657-.501zm16.098-1.19l-5.523 12.444h-1.842l2.081-4.488-3.756-7.956h1.841l2.817 6.188 2.541-6.188h1.841zm6.285 8.5c-1.314 0-2.345-.244-3.093-.731l.202-1.479c.246.204.623.397 1.132.578.51.181 1.071.272 1.685.272 1.203 0 1.804-.346 1.804-1.037 0-.623-.601-1.082-1.804-1.377-.368-.08-.715-.173-1.04-.28a3.491 3.491 0 0 1-.875-.426c-.257-.175-.47-.399-.635-.671-.166-.272-.26-.612-.285-1.02 0-.714.276-1.309.828-1.785.553-.476 1.406-.714 2.56-.714.822 0 1.638.181 2.448.544l-.202 1.394c-.639-.487-1.375-.731-2.21-.731-1.166 0-1.749.374-1.749 1.122 0 .181.03.334.092.459a.83.83 0 0 0 .332.331c.16.097.374.19.644.281.27.09.614.193 1.031.306.258.068.537.161.838.28.3.12.58.275.838.468a2.5 2.5 0 0 1 .644.714c.172.283.258.623.258 1.02 0 .272-.05.555-.148.85a1.904 1.904 0 0 1-.533.799c-.258.238-.611.436-1.06.595-.447.159-1.015.238-1.702.238zm21.867-1.224l-.258 1.224h-.129c-.368 0-.675-.02-.92-.06a1.892 1.892 0 0 1-.626-.203 1.35 1.35 0 0 1-.433-.383 3.762 3.762 0 0 1-.34-.578c-.762.816-1.682 1.224-2.763 1.224-.846 0-1.522-.224-2.025-.672-.503-.447-.755-1.028-.755-1.742 0-.578.17-1.054.507-1.428a3.682 3.682 0 0 1 1.288-.901 6.955 6.955 0 0 1 1.74-.484c.639-.097 1.259-.15 1.86-.162 0-.748-.157-1.255-.47-1.521-.313-.267-.813-.4-1.5-.4-.786 0-1.577.25-2.375.748l-.24-1.241c.81-.578 1.83-.867 3.057-.867.577 0 1.068.07 1.473.213.405.141.733.368.985.68.251.311.435.722.552 1.232.117.51.175 1.133.175 1.87v1.7c0 .657.061 1.113.184 1.369.123.255.405.382.847.382h.166zm-2.854-1.122v-1.989c-1.326.045-2.274.207-2.845.484-.57.278-.856.729-.856 1.352 0 .85.467 1.275 1.4 1.275.441 0 .868-.102 1.28-.306a2.969 2.969 0 0 0 1.021-.816zm11.219 1.122l-.129 1.224h-1.491c-.798 0-1.39-.193-1.777-.578a1.916 1.916 0 0 1-.58-1.411V58.61h-1.547l.148-1.19h1.399v-2.057l1.657-.153v2.21h2.375v1.19h-2.375v4.386c0 .397.012.708.037.935.024.227.095.397.212.51.116.113.303.184.561.212.258.029.62.043 1.086.043h.424zm13.803 0l-.24 1.224h-.534c-.81 0-1.402-.19-1.776-.57-.375-.38-.562-.858-.562-1.436V53h1.657v10.03c0 .351.015.637.046.858.03.222.095.391.193.51a.732.732 0 0 0 .433.239c.19.04.451.059.783.059zm11.366 0l-.258 1.224h-.129c-.368 0-.675-.02-.92-.06a1.892 1.892 0 0 1-.626-.203 1.35 1.35 0 0 1-.433-.383 3.762 3.762 0 0 1-.34-.578c-.762.816-1.682 1.224-2.763 1.224-.846 0-1.522-.224-2.025-.672-.503-.447-.755-1.028-.755-1.742 0-.578.169-1.054.507-1.428a3.682 3.682 0 0 1 1.288-.901 6.955 6.955 0 0 1 1.74-.484c.639-.097 1.258-.15 1.86-.162 0-.748-.157-1.255-.47-1.521-.313-.267-.813-.4-1.5-.4-.786 0-1.577.25-2.375.748l-.24-1.241c.81-.578 1.83-.867 3.057-.867.577 0 1.068.07 1.473.213.405.141.733.368.985.68.251.311.435.722.552 1.232.117.51.175 1.133.175 1.87v1.7c0 .657.061 1.113.184 1.369.123.255.405.382.847.382h.166zm-2.854-1.122v-1.989c-1.326.045-2.274.207-2.845.484-.57.278-.856.729-.856 1.352 0 .85.467 1.275 1.4 1.275.441 0 .868-.102 1.28-.306a2.969 2.969 0 0 0 1.02-.816zM283 57.42l-2.725 8.33h-1.86l-1.878-6.154-1.896 6.154h-1.86l-2.706-8.33h1.952l1.73 6.647 1.915-6.392h1.712l1.934 6.392 1.73-6.647H283zM122 36.237c0-1.227.22-2.398.66-3.51.44-1.113.987-2.087 1.642-2.921.655-.835 1.51-1.66 2.566-2.475a29.706 29.706 0 0 1 3.02-2.072 54.694 54.694 0 0 1 3.402-1.827 67.049 67.049 0 0 1-1.452-2.547 39.168 39.168 0 0 1-1.187-2.49 14.693 14.693 0 0 1-.983-3.064 16.178 16.178 0 0 1-.308-3.18c0-2.551.953-4.715 2.86-6.49C134.125 3.888 136.505 3 139.36 3c3.03 0 5.43.652 7.199 1.957 1.77 1.304 2.654 3.146 2.654 5.525 0 .844-.103 1.66-.308 2.446-.205.787-.47 1.506-.792 2.158a10.595 10.595 0 0 1-1.275 1.957 17.817 17.817 0 0 1-1.599 1.741 23.162 23.162 0 0 1-1.906 1.597 40.433 40.433 0 0 1-2.052 1.468c-.636.422-1.374.882-2.214 1.381 2.639 4.394 6.001 8.825 10.087 13.295 1.134-1.688 2.063-3.31 2.786-4.863.723-1.554 1.085-2.542 1.085-2.964 0-.384-.205-.662-.616-.835-.41-.172-.914-.273-1.51-.302a69.252 69.252 0 0 0-.953-.043c-.098-.211-.142-.49-.132-.835.01-.345.083-.585.22-.719h5.366a63.094 63.094 0 0 0 3.446-.1c.498-.03 1.134-.068 1.906-.116s1.48-.081 2.126-.1c.098.057.137.383.117.978-.02.595-.078.892-.176.892-.586 0-1.422.13-2.507.388-1.085.26-1.813.504-2.185.734-.058.039-.38.542-.967 1.511-.587.969-1.447 2.273-2.58 3.914a49.772 49.772 0 0 1-3.52 4.532c.04.058.117.134.235.23.938.96 1.627 1.66 2.067 2.101.44.441.968.93 1.584 1.468.615.537 1.134.906 1.554 1.108.42.201.826.302 1.217.302.645 0 1.339-.374 2.082-1.123.743-.748 1.231-1.4 1.466-1.956.352 0 .699.139 1.041.417.342.278.513.542.513.791-.117.25-.24.5-.366.748-.127.25-.41.648-.85 1.195a8.36 8.36 0 0 1-1.408 1.395c-.499.384-1.178.734-2.038 1.05a7.918 7.918 0 0 1-2.757.476c-.743 0-1.52-.164-2.331-.49a9.094 9.094 0 0 1-2.155-1.208 27.019 27.019 0 0 1-1.716-1.425 17.47 17.47 0 0 1-1.217-1.194l-.41-.49c-1.72 1.478-3.676 2.682-5.865 3.612-2.19.93-4.36 1.396-6.51 1.396-4.027 0-7.233-.954-9.618-2.863-2.385-1.91-3.578-4.542-3.578-7.9zm5.857-1.358c0 1.581.282 2.977.844 4.188.563 1.211 1.326 2.172 2.288 2.883a10.3 10.3 0 0 0 3.208 1.591c1.177.35 2.441.526 3.792.526.962 0 1.98-.15 3.055-.45 1.075-.301 2.134-.746 3.178-1.337 1.044-.59 1.934-1.266 2.67-2.027-1.37-1.36-3.028-3.313-4.973-5.855-1.945-2.542-3.551-4.744-4.82-6.606L135.195 25c-.737.5-1.28.866-1.627 1.096-.348.23-.84.59-1.474 1.08-.634.491-1.105.897-1.412 1.217-.307.32-.676.746-1.106 1.276-.43.53-.747 1.036-.951 1.516-.205.48-.384 1.041-.538 1.682a8.605 8.605 0 0 0-.23 2.012zm7.322-23.676c0 1.598.297 3.276.893 5.032.595 1.756 1.479 3.7 2.65 5.832 1.152-.691 2.099-1.318 2.84-1.88a12.068 12.068 0 0 0 2.065-2.013 7.37 7.37 0 0 0 1.377-2.65c.283-.986.425-2.13.425-3.433a7.72 7.72 0 0 0-.572-2.96 5.56 5.56 0 0 0-1.713-2.295 4.088 4.088 0 0 0-2.606-.903c-1.484 0-2.748.494-3.793 1.48-1.044.987-1.566 2.25-1.566 3.79z"/></g></svg>